<svg width="1501" height="332" viewBox="0 0 1501 332" fill="none" xmlns="http://www.w3.org/2000/svg">
<path d="M109.996 164.25L165.821 76.5259L221.646 164.25L165.821 196.15L109.996 164.25Z" fill="white"/>
<path d="M109.996 179.233L165.821 211.133L221.646 179.233L165.821 254.995L109.996 179.233Z" fill="white"/>
<path d="M191.208 40.9392C182.538 44.985 174.096 49.5026 165.921 54.4717C157.694 49.4469 149.181 44.9074 140.424 40.8764C148.598 35.3519 157.045 30.2419 165.732 25.5659C174.266 30.1463 182.758 35.2707 191.208 40.9392Z" fill="#5F9A34"/>
<path d="M310.407 21.1734C279.765 -9.46798 223.92 -5.80771 165.732 25.566C174.266 30.1464 182.758 35.2708 191.208 40.9393C213.734 30.5232 235.194 24.9384 253.37 24.9384C269.621 24.9384 283.258 29.3937 292.712 38.8477C312.77 58.9056 310.386 97.7254 290.641 140.373C296.289 148.802 301.413 157.293 306.015 165.848C337.388 107.66 341.049 51.8154 310.407 21.1734Z" fill="#FFC750"/>
<path d="M191.208 40.9396C182.538 44.9854 174.096 49.503 165.92 54.4721C211.11 82.4267 249.159 120.533 277.046 165.765C282.031 157.552 286.569 149.076 290.641 140.373C277.432 120.819 262.366 102.586 245.651 85.9291C229.009 69.1989 210.774 54.1311 191.208 40.9396Z" fill="#FFC750"/>
<path d="M306.015 165.849C301.476 174.278 296.351 182.769 290.662 191.219C286.592 182.492 282.047 173.995 277.046 165.765C282.031 157.552 286.57 149.076 290.641 140.374C296.289 148.802 301.413 157.294 306.015 165.849Z" fill="#FF512F"/>
<path d="M290.662 191.219C286.592 182.492 282.046 173.994 277.046 165.765C263.226 188.367 246.745 209.229 227.956 227.906C209.317 246.705 188.489 263.2 165.92 277.037C174.087 282.022 182.53 286.54 191.208 290.569C210.774 277.378 229.009 262.31 245.651 245.58C262.373 228.954 277.447 210.749 290.662 191.219Z" fill="#FF6895"/>
<path d="M323.939 207.806C319.299 193.287 313.297 179.239 306.015 165.849C301.476 174.278 296.351 182.769 290.662 191.219C310.386 233.846 312.77 272.624 292.712 292.661C272.654 312.719 233.855 310.314 191.208 290.569C189.451 291.762 187.694 292.912 185.937 294.041C179.244 298.35 172.488 302.324 165.732 305.943C196.709 322.654 227.016 331.502 253.223 331.502C276.231 331.502 296.08 324.683 310.407 310.356C332.828 287.934 337.618 251.52 323.939 207.806Z" fill="#FF6895"/>
<path d="M191.208 290.569C189.451 291.762 187.694 292.912 185.937 294.041C179.244 298.35 172.488 302.324 165.732 305.943C157.324 301.425 148.888 296.321 140.424 290.632C149.181 286.601 157.694 282.061 165.921 277.037C174.087 282.021 182.53 286.54 191.208 290.569Z" fill="#552990"/>
<path d="M116.287 300.002C81.9017 310.773 54.4183 308.159 38.9199 292.66C23.4209 277.162 20.8065 249.678 31.5784 215.293C34.1798 207.064 37.3026 199.009 40.9278 191.177C35.2596 182.748 30.1562 174.277 25.6173 165.869C18.3413 179.252 12.3466 193.293 7.71325 207.805C-5.98644 251.519 -1.17596 287.933 21.225 310.355C35.2804 324.39 54.8156 331.522 78.1996 331.522C93.6842 331.288 109.044 328.707 123.754 323.867C138.28 319.227 152.335 313.225 165.732 305.942C157.324 301.424 148.888 296.321 140.424 290.632C132.588 294.269 124.525 297.399 116.287 300.002Z" fill="#5666F6"/>
<path d="M140.424 290.633C149.181 286.602 157.694 282.062 165.921 277.037C143.276 263.217 122.377 246.721 103.675 227.906C84.8603 209.204 68.3646 188.305 54.5441 165.661C49.5206 173.899 44.9744 182.419 40.9279 191.178C54.1643 210.722 69.2589 228.941 86.0013 245.58C102.633 262.333 120.86 277.422 140.424 290.633Z" fill="#5666F6"/>
<path d="M54.5439 165.66C49.5204 173.898 44.9742 182.418 40.9277 191.178C35.2595 182.749 30.1561 174.278 25.6172 165.87C30.1976 157.336 35.343 148.802 41.0114 140.374C45.041 149.051 49.5591 157.494 54.5439 165.66Z" fill="#204FA0"/>
<path d="M38.9198 38.848C54.4183 23.3491 81.9016 20.7347 116.287 31.5275C124.522 34.1323 132.583 37.255 140.424 40.8769C148.598 35.3523 157.045 30.2424 165.732 25.5664C152.339 18.2746 138.283 12.2726 123.754 7.64139C80.061 -6.03711 43.6466 -1.24782 21.2249 21.1739C6.89759 35.5014 0.0790405 55.3505 0.0790405 78.3579C0.0790405 104.565 8.92642 134.893 25.6172 165.87C30.1976 157.336 35.3431 148.802 41.0115 140.373C21.2668 97.7258 18.8614 58.906 38.9198 38.848Z" fill="#5FC5A6"/>
<path d="M140.424 40.8773C101.305 67.4732 67.574 101.233 41.0112 140.374C45.0408 149.052 49.5588 157.494 54.5437 165.661C82.504 120.43 120.643 82.3562 165.92 54.4726C157.694 49.4478 149.18 44.9083 140.424 40.8773Z" fill="#5FC5A6"/>
<path fill-rule="evenodd" clip-rule="evenodd" d="M973.84 165.715V160.89L892.786 160.89V176.973H956.003C950.58 208.349 923.863 231.195 892.684 231.12C861.505 231.044 834.895 208.069 829.617 176.668C824.338 145.266 841.92 114.534 871.287 103.83C900.654 93.1268 933.3 105.553 948.659 133.28L963.086 124.971C942.758 88.6981 899.235 73.4907 861.43 89.4511C823.625 105.411 803.297 147.576 813.949 187.933C824.602 228.29 862.922 254.288 903.453 248.656C943.984 243.024 974.12 207.513 973.84 165.715ZM1275.65 245.077C1296.25 236.344 1309.66 215.914 1309.65 193.273C1309.67 170.633 1296.25 150.203 1275.65 141.47C1255.04 132.736 1231.27 137.411 1215.38 153.323V83.1403H1198.87V247.26H1215.38V233.223C1231.27 249.135 1255.04 253.81 1275.65 245.077ZM1482.75 86.6044H1500.06V249.421H1482.75V86.6044ZM1461.98 247.281V233.426H1455.34C1449.49 233.426 1444.44 229.429 1444.44 219.57V140.699H1427.96V154.555C1417.66 144.28 1403.7 138.53 1389.17 138.568C1363.92 138.465 1341.84 155.595 1335.6 180.125C1329.36 204.655 1340.56 230.297 1362.77 242.33C1384.99 254.364 1412.52 249.705 1429.56 231.028C1432.48 242.09 1442.6 249.694 1454.01 249.413C1456.81 249.438 1459.56 248.701 1461.98 247.281ZM1389.17 155.088C1410.59 155.088 1427.97 172.505 1427.97 193.99C1427.94 215.465 1410.58 232.868 1389.17 232.893C1367.74 232.893 1350.37 215.476 1350.37 193.991C1350.37 172.506 1367.74 155.088 1389.17 155.088ZM1293.14 193.273C1293.14 171.507 1275.74 153.862 1254.26 153.862C1232.79 153.862 1215.38 171.507 1215.38 193.273C1215.38 215.038 1232.79 232.683 1254.26 232.683C1264.58 232.716 1274.49 228.575 1281.79 221.177C1289.09 213.779 1293.18 203.735 1293.14 193.273ZM1112.32 138.567C1081.73 138.567 1056.93 163.383 1056.93 193.994C1056.92 208.698 1062.75 222.802 1073.14 233.199C1083.53 243.596 1097.63 249.432 1112.32 249.421C1142.91 249.421 1167.71 224.605 1167.71 193.994C1167.71 163.382 1142.91 138.567 1112.32 138.567ZM1151.2 193.994C1151.2 172.508 1133.79 155.089 1112.32 155.09C1090.85 155.09 1073.44 172.508 1073.44 193.995C1073.44 215.482 1090.85 232.9 1112.32 232.9C1133.78 232.874 1151.18 215.471 1151.2 193.994ZM1008.46 86.6044H1025.77V249.421H1008.46V86.6044ZM783.434 249.421V86.6044H748.547V152.002H683.569V86.6044H648.417V249.421H683.569V183.752H748.547V249.421H783.434ZM634.569 118.354H594.82V249.421H560.336V118.354H520.324V86.6044H634.569V118.354ZM448.447 152.274V118.082H509.938V86.6044H413.003V249.421H509.938V217.943H448.447V183.752H501.077V152.274H448.447Z" fill="white"/>
</svg>
